<?xml version="1.0" encoding="UTF-8"?>
<svg width="400" height="136" version="1.1" viewBox="0 0 255.65 86.617" xml:space="preserve" xmlns="http://www.w3.org/2000/svg" xmlns:cc="http://creativecommons.org/ns#" xmlns:dc="http://purl.org/dc/elements/1.1/" xmlns:rdf="http://www.w3.org/1999/02/22-rdf-syntax-ns#"><metadata><rdf:RDF><cc:Work rdf:about=""><dc:format>image/svg+xml</dc:format><dc:type rdf:resource="http://purl.org/dc/dcmitype/StillImage"/><dc:title/></cc:Work></rdf:RDF></metadata><defs><clipPath id="clipPath1032"><path d="m3096.8 1442.7-138.82-102.87v102.87z"/></clipPath><linearGradient id="linearGradient1040" x2="1" gradientTransform="matrix(-306.43 -369.99 -369.99 306.43 3063 1485.7)" gradientUnits="userSpaceOnUse"><stop stop-color="#edea2e" offset="0"/><stop stop-color="#f3673b" offset=".99462"/><stop stop-color="#f3673b" offset="1"/></linearGradient><clipPath id="clipPath1050"><path d="m2910.8 1442.7v-137.91l-108.31-80.27v109.86h-216.55v108.32z"/></clipPath><linearGradient id="linearGradient1058" x2="1" gradientTransform="matrix(-306.43 -369.99 -369.99 306.43 2931.4 1594.7)" gradientUnits="userSpaceOnUse"><stop stop-color="#edea2e" offset="0"/><stop stop-color="#f3673b" offset=".99462"/><stop stop-color="#f3673b" offset="1"/></linearGradient><clipPath id="clipPath1068"><path d="m2910.8 1197.8v-296.53l-108.31-108.23v323.14z"/></clipPath><linearGradient id="linearGradient1076" x2="1" gradientTransform="matrix(-299.62 -811.1 -811.1 299.62 3026.9 1469.5)" gradientUnits="userSpaceOnUse"><stop stop-color="#3dc0e2" offset="0"/><stop stop-color="#198eb0" offset=".99462"/><stop stop-color="#198eb0" offset="1"/></linearGradient><clipPath id="clipPath1086"><path d="m3066.2 1314.9v-258.21l-108.22-108.23v284.91z"/></clipPath><linearGradient id="linearGradient1094" x2="1" gradientTransform="matrix(-299.62 -811.1 -811.1 299.62 3119.4 1435.3)" gradientUnits="userSpaceOnUse"><stop stop-color="#3dc0e2" offset="0"/><stop stop-color="#198eb0" offset=".99462"/><stop stop-color="#198eb0" offset="1"/></linearGradient><clipPath id="clipPath1104"><path d="m3066.2 901.35v-0.09h-108.22v0.09z"/></clipPath><linearGradient id="linearGradient1112" x2="1" gradientTransform="matrix(0 -727.06 -727.06 0 3012.1 1264.9)" gradientUnits="userSpaceOnUse"><stop stop-color="#3dc0e2" offset="0"/><stop stop-color="#198eb0" offset=".99462"/><stop stop-color="#198eb0" offset="1"/></linearGradient><clipPath id="clipPath1158"><path d="m2802.5 1224.5v-108.31l-0.09-0.09v108.31z"/></clipPath><linearGradient id="linearGradient1166" x2="1" gradientTransform="matrix(0 -1015.8 -1015.8 0 2802.4 1501.9)" gradientUnits="userSpaceOnUse"><stop stop-color="#38813d" offset="0"/><stop stop-color="#bdd21b" offset=".99462"/><stop stop-color="#bdd21b" offset="1"/></linearGradient></defs><g transform="matrix(1.3333 0 0 -1.3333 -344.79 192.36)"><g transform="scale(.1)"><g clip-path="url(#clipPath1032)"><path d="m3096.8 1442.7-138.82-102.87v102.87z" fill="url(#linearGradient1040)"/></g></g><g transform="scale(.1)"><g clip-path="url(#clipPath1050)"><path d="m2910.8 1442.7v-137.91l-108.31-80.27v109.86h-216.55v108.32h324.86" fill="url(#linearGradient1058)"/></g></g><g transform="scale(.1)"><g clip-path="url(#clipPath1068)"><path d="m2910.8 1197.8v-296.53l-108.31-108.23v323.14l108.31 81.62" fill="url(#linearGradient1076)"/></g></g><g transform="scale(.1)"><g clip-path="url(#clipPath1086)"><path d="m3066.2 1314.9v-258.21l-108.22-108.23v284.91l108.22 81.53" fill="url(#linearGradient1094)"/></g></g><g transform="scale(.1)"><g clip-path="url(#clipPath1104)"><path d="m3066.2 901.35v-0.09h-108.22v0.09h108.22" fill="url(#linearGradient1112)"/></g></g><g transform="scale(.1)"><g clip-path="url(#clipPath1158)"><path d="m2802.5 1224.5v-108.31l-0.09-0.09v108.31l0.09 0.09" fill="url(#linearGradient1166)"/></g></g><g transform="scale(1,-1)" fill="#5e5e69" aria-label="TEMPER"><path d="m327.06-126.08v19.404h-6.468v-19.404h-5.313v-5.478h17.094v5.478z"/><path d="m349.37-126.08h-7.689v4.158h7.26v5.478h-7.26v4.29h7.689v5.478h-14.157v-24.882h14.157z"/><path d="m352.91-106.67 4.224-24.882h6.402l4.983 13.266 4.95-13.266h6.402l4.224 24.882h-6.435l-2.145-14.322-5.874 14.322h-2.574l-5.577-14.322-2.145 14.322z"/><path d="m394.67-120.14h2.145q3.564 0 3.564-3.102t-3.564-3.102h-2.145zm0 13.464h-6.468v-24.882h10.296q4.191 0 6.402 2.178 2.244 2.178 2.244 6.138t-2.244 6.138q-2.211 2.178-6.402 2.178h-3.828z"/><path d="m424.72-126.08h-7.689v4.158h7.26v5.478h-7.26v4.29h7.689v5.478h-14.157v-24.882h14.157z"/><path d="m435.85-120.43h1.221q1.914 0 2.937-0.792t1.023-2.277-1.023-2.277-2.937-0.792h-1.221zm14.223 13.761h-8.052l-6.171-9.57v9.57h-6.468v-24.882h10.065q2.079 0 3.63 0.627 1.551 0.594 2.541 1.65 1.023 1.056 1.518 2.442 0.528 1.386 0.528 2.97 0 2.838-1.386 4.62-1.353 1.749-4.026 2.376z"/></g><g transform="scale(1,-1)" fill="#5e5e69" fill-opacity=".7" aria-label=" State management for React, made simple."><path d="m319.61-98.052h-1.1088v0.2233q0 0.7623 0.4004 1.1704 0.4081 0.4081 1.3475 0.4081 0.9009 0 1.4014-0.3927 0.5082-0.4004 0.5082-1.2705 0-0.2541-0.0462-0.462t-0.1694-0.3773q-0.1155-0.1771-0.3157-0.3234-0.2002-0.154-0.5159-0.2926l-0.8547-0.3696q-0.3542-0.1463-0.462-0.3157-0.1078-0.1771-0.1078-0.4312 0-0.1232 0.0231-0.2387 0.0308-0.1155 0.1001-0.2002 0.077-0.0924 0.2002-0.1463t0.308-0.0539q0.3234 0 0.462 0.2156 0.1386 0.2079 0.1386 0.6006h1.0626v-0.154q0-0.3927-0.1309-0.6699-0.1232-0.2849-0.3542-0.462-0.2233-0.1848-0.539-0.2618-0.308-0.0847-0.6776-0.0847-0.7931 0-1.2474 0.4004t-0.4543 1.2166q0 0.3388 0.0847 0.6006 0.0847 0.2541 0.2618 0.4543 0.1848 0.1925 0.4543 0.3388t0.6391 0.2695q0.2772 0.0924 0.462 0.1848 0.1925 0.0847 0.308 0.1925t0.1617 0.2464q0.0539 0.1309 0.0539 0.3157 0 0.3465-0.2079 0.5159-0.2002 0.1617-0.4543 0.1617-0.2156 0-0.3619-0.0616-0.1386-0.0616-0.2233-0.1694t-0.1155-0.2618q-0.0308-0.1617-0.0308-0.3542z" style="font-variant-caps:normal;font-variant-east-asian:normal;font-variant-ligatures:normal;font-variant-numeric:normal"/><path d="m322.92-101.66v1.1858h-0.539v0.7238h0.539v2.3716q0 0.3157 0.0385 0.5236t0.1386 0.3388q0.1078 0.1232 0.3003 0.1694 0.2002 0.0385 0.5082 0.0385 0.1848 0 0.3465-0.0154 0.1694-0.0077 0.3465-0.0077v-0.7392q-0.0539 0.0077-0.1155 0.0154-0.0616 0-0.1232 0-0.231 0-0.308-0.1001-0.0693-0.1078-0.0693-0.3542v-2.2407h0.616v-0.7238h-0.616v-1.1858z" style="font-variant-caps:normal;font-variant-east-asian:normal;font-variant-ligatures:normal;font-variant-numeric:normal"/><path d="m326.9-98.406v0.8162q0 0.1694-0.0616 0.2926t-0.1617 0.2002q-0.0924 0.077-0.2079 0.1155-0.1155 0.0308-0.2233 0.0308-0.2156 0-0.308-0.1694t-0.0924-0.4081q0-0.2772 0.1386-0.4389t0.462-0.231q0.1001-0.0231 0.2233-0.0693 0.1232-0.0539 0.231-0.1386zm-1.9404-0.8008h0.9548v-0.1155q0-0.2464 0.1232-0.3927t0.3696-0.1463q0.2695 0 0.3773 0.1386 0.1155 0.1309 0.1155 0.3696 0 0.2079-0.0924 0.3157t-0.3311 0.1694l-0.6006 0.1617q-0.2772 0.077-0.4774 0.1771-0.1925 0.1001-0.3234 0.2541-0.1232 0.1463-0.1848 0.3619-0.0616 0.2079-0.0616 0.5005 0 0.2079 0.0539 0.4235 0.0539 0.2079 0.1694 0.3773t0.308 0.2695q0.1925 0.0924 0.4697 0.0924 0.385 0 0.6237-0.0924 0.2464-0.1001 0.4312-0.4235h0.0154q0.0231 0.1078 0.0462 0.2233 0.0308 0.1078 0.0847 0.2079h1.0164q-0.077-0.1848-0.1078-0.3465-0.0231-0.1617-0.0231-0.4543v-2.1791q0-0.2772-0.0616-0.5082-0.0539-0.2387-0.2156-0.4081t-0.4543-0.2618-0.77-0.0924q-0.3003 0-0.5698 0.0693-0.2618 0.0616-0.462 0.2156-0.1925 0.1463-0.308 0.3927-0.1155 0.2387-0.1155 0.6006z" style="font-variant-caps:normal;font-variant-east-asian:normal;font-variant-ligatures:normal;font-variant-numeric:normal"/><path d="m328.9-101.66v1.1858h-0.539v0.7238h0.539v2.3716q0 0.3157 0.0385 0.5236t0.1386 0.3388q0.1078 0.1232 0.3003 0.1694 0.2002 0.0385 0.5082 0.0385 0.1848 0 0.3465-0.0154 0.1694-0.0077 0.3465-0.0077v-0.7392q-0.0539 0.0077-0.1155 0.0154-0.0616 0-0.1232 0-0.231 0-0.308-0.1001-0.0693-0.1078-0.0693-0.3542v-2.2407h0.616v-0.7238h-0.616v-1.1858z" style="font-variant-caps:normal;font-variant-east-asian:normal;font-variant-ligatures:normal;font-variant-numeric:normal"/><path d="m332.95-98.876h-1.0857v-0.1617q0-0.1463 0.0231-0.2926 0.0308-0.1463 0.0924-0.2618 0.0616-0.1232 0.1617-0.1925 0.1078-0.077 0.2695-0.077t0.2618 0.0693q0.1078 0.0616 0.1617 0.1925 0.0616 0.1232 0.0847 0.308 0.0231 0.1771 0.0308 0.4158zm-1.0857 0.6314h2.1021v-0.2387q0-0.4774-0.0616-0.8624-0.0616-0.3927-0.231-0.6622-0.1694-0.2772-0.4697-0.4235-0.2926-0.154-0.7546-0.154-0.539 0-0.8624 0.1771t-0.5005 0.4774q-0.1694 0.3003-0.231 0.6853-0.0539 0.385-0.0539 0.8008 0 0.3927 0.0308 0.7854 0.0385 0.3927 0.1925 0.7084t0.4774 0.5082 0.9009 0.1925q0.7623 0 1.1165-0.3773t0.385-1.1011h-0.9548q-0.0462 0.3927-0.1694 0.5852t-0.3927 0.1925q-0.1463 0-0.2464-0.077-0.1001-0.0847-0.1617-0.2156-0.0616-0.1386-0.0924-0.308-0.0231-0.1771-0.0231-0.3619z" style="font-variant-caps:normal;font-variant-east-asian:normal;font-variant-ligatures:normal;font-variant-numeric:normal"/><path d="m336.37-100.48v4.1426h1.0626v-2.7258q0-0.3696 0.1463-0.539 0.154-0.1694 0.4081-0.1694 0.2233 0 0.3157 0.1386 0.1001 0.1386 0.1001 0.4004v2.8952h1.0626v-2.7258q0-0.3696 0.1463-0.539 0.154-0.1694 0.4081-0.1694 0.2233 0 0.3157 0.1386 0.1001 0.1386 0.1001 0.4004v2.8952h1.0626v-3.0107q0-0.6006-0.2541-0.9163-0.2464-0.3234-0.7777-0.3234-0.3773 0-0.6545 0.1694-0.2695 0.1617-0.3927 0.4928h-0.0154q-0.0847-0.3234-0.3388-0.4928-0.2464-0.1694-0.616-0.1694-0.3465 0-0.6006 0.1232-0.2464 0.1232-0.4466 0.4081h-0.0154v-0.4235z" style="font-variant-caps:normal;font-variant-east-asian:normal;font-variant-ligatures:normal;font-variant-numeric:normal"/><path d="m344.14-98.406v0.8162q0 0.1694-0.0616 0.2926t-0.1617 0.2002q-0.0924 0.077-0.2079 0.1155-0.1155 0.0308-0.2233 0.0308-0.2156 0-0.308-0.1694t-0.0924-0.4081q0-0.2772 0.1386-0.4389t0.462-0.231q0.1001-0.0231 0.2233-0.0693 0.1232-0.0539 0.231-0.1386zm-1.9404-0.8008h0.9548v-0.1155q0-0.2464 0.1232-0.3927t0.3696-0.1463q0.2695 0 0.3773 0.1386 0.1155 0.1309 0.1155 0.3696 0 0.2079-0.0924 0.3157t-0.3311 0.1694l-0.6006 0.1617q-0.2772 0.077-0.4774 0.1771-0.1925 0.1001-0.3234 0.2541-0.1232 0.1463-0.1848 0.3619-0.0616 0.2079-0.0616 0.5005 0 0.2079 0.0539 0.4235 0.0539 0.2079 0.1694 0.3773t0.308 0.2695q0.1925 0.0924 0.4697 0.0924 0.385 0 0.6237-0.0924 0.2464-0.1001 0.4312-0.4235h0.0154q0.0231 0.1078 0.0462 0.2233 0.0308 0.1078 0.0847 0.2079h1.0164q-0.077-0.1848-0.1078-0.3465-0.0231-0.1617-0.0231-0.4543v-2.1791q0-0.2772-0.0616-0.5082-0.0539-0.2387-0.2156-0.4081t-0.4543-0.2618-0.77-0.0924q-0.3003 0-0.5698 0.0693-0.2618 0.0616-0.462 0.2156-0.1925 0.1463-0.308 0.3927-0.1155 0.2387-0.1155 0.6006z" style="font-variant-caps:normal;font-variant-east-asian:normal;font-variant-ligatures:normal;font-variant-numeric:normal"/><path d="m345.9-100.48v4.1426h1.0626v-2.7489q0-0.6853 0.5621-0.6853 0.2387 0 0.3465 0.1309 0.1078 0.1232 0.1078 0.4466v2.8567h1.0626v-3.0723q0-0.6237-0.2772-0.9009-0.2695-0.2772-0.7777-0.2772-0.3465 0-0.616 0.1463-0.2695 0.1386-0.4389 0.4466h-0.0154v-0.4851z" style="font-variant-caps:normal;font-variant-east-asian:normal;font-variant-ligatures:normal;font-variant-numeric:normal"/><path d="m351.69-98.406v0.8162q0 0.1694-0.0616 0.2926t-0.1617 0.2002q-0.0924 0.077-0.2079 0.1155-0.1155 0.0308-0.2233 0.0308-0.2156 0-0.308-0.1694t-0.0924-0.4081q0-0.2772 0.1386-0.4389t0.462-0.231q0.1001-0.0231 0.2233-0.0693 0.1232-0.0539 0.231-0.1386zm-1.9404-0.8008h0.9548v-0.1155q0-0.2464 0.1232-0.3927t0.3696-0.1463q0.2695 0 0.3773 0.1386 0.1155 0.1309 0.1155 0.3696 0 0.2079-0.0924 0.3157t-0.3311 0.1694l-0.6006 0.1617q-0.2772 0.077-0.4774 0.1771-0.1925 0.1001-0.3234 0.2541-0.1232 0.1463-0.1848 0.3619-0.0616 0.2079-0.0616 0.5005 0 0.2079 0.0539 0.4235 0.0539 0.2079 0.1694 0.3773t0.308 0.2695q0.1925 0.0924 0.4697 0.0924 0.385 0 0.6237-0.0924 0.2464-0.1001 0.4312-0.4235h0.0154q0.0231 0.1078 0.0462 0.2233 0.0308 0.1078 0.0847 0.2079h1.0164q-0.077-0.1848-0.1078-0.3465-0.0231-0.1617-0.0231-0.4543v-2.1791q0-0.2772-0.0616-0.5082-0.0539-0.2387-0.2156-0.4081t-0.4543-0.2618-0.77-0.0924q-0.3003 0-0.5698 0.0693-0.2618 0.0616-0.462 0.2156-0.1925 0.1463-0.308 0.3927-0.1155 0.2387-0.1155 0.6006z" style="font-variant-caps:normal;font-variant-east-asian:normal;font-variant-ligatures:normal;font-variant-numeric:normal"/><path d="m354.43-98.276q0-0.4158 0.0154-0.7007 0.0231-0.2926 0.0847-0.462 0.0616-0.1771 0.1694-0.2541t0.2849-0.077q0.3157 0 0.4312 0.3157 0.1232 0.3157 0.1232 1.0703 0 0.2618-0.0308 0.4851-0.0231 0.2156-0.0924 0.3696-0.0616 0.154-0.1771 0.2464-0.1078 0.0847-0.2772 0.0847t-0.2772-0.0847q-0.1001-0.0924-0.1617-0.2387-0.0539-0.154-0.077-0.3465-0.0154-0.1925-0.0154-0.4081zm2.1252-2.2022h-1.0164v0.462h-0.0154q-0.154-0.3234-0.3927-0.4466t-0.462-0.1232q-0.4312 0-0.693 0.1925-0.2541 0.1925-0.3927 0.5005-0.1309 0.3003-0.1771 0.6776-0.0385 0.3773-0.0385 0.7392 0 1.1319 0.3157 1.617 0.3234 0.4774 0.9548 0.4774 0.2541 0 0.4851-0.1386 0.2387-0.1386 0.4004-0.3696h0.0154v0.5467q0 0.308-0.1309 0.5159t-0.4543 0.2079q-0.1001 0-0.1925-0.0308-0.0847-0.0308-0.1617-0.0847-0.1617-0.1155-0.1617-0.3157h-1.0164q0 0.5313 0.3619 0.8162 0.3696 0.2926 1.0472 0.2926 0.9317 0 1.3244-0.4004 0.4004-0.4004 0.4004-1.2012z" style="font-variant-caps:normal;font-variant-east-asian:normal;font-variant-ligatures:normal;font-variant-numeric:normal"/><path d="m359.3-98.876h-1.0857v-0.1617q0-0.1463 0.0231-0.2926 0.0308-0.1463 0.0924-0.2618 0.0616-0.1232 0.1617-0.1925 0.1078-0.077 0.2695-0.077t0.2618 0.0693q0.1078 0.0616 0.1617 0.1925 0.0616 0.1232 0.0847 0.308 0.0231 0.1771 0.0308 0.4158zm-1.0857 0.6314h2.1021v-0.2387q0-0.4774-0.0616-0.8624-0.0616-0.3927-0.231-0.6622-0.1694-0.2772-0.4697-0.4235-0.2926-0.154-0.7546-0.154-0.539 0-0.8624 0.1771t-0.5005 0.4774q-0.1694 0.3003-0.231 0.6853-0.0539 0.385-0.0539 0.8008 0 0.3927 0.0308 0.7854 0.0385 0.3927 0.1925 0.7084t0.4774 0.5082 0.9009 0.1925q0.7623 0 1.1165-0.3773t0.385-1.1011h-0.9548q-0.0462 0.3927-0.1694 0.5852t-0.3927 0.1925q-0.1463 0-0.2464-0.077-0.1001-0.0847-0.1617-0.2156-0.0616-0.1386-0.0924-0.308-0.0231-0.1771-0.0231-0.3619z" style="font-variant-caps:normal;font-variant-east-asian:normal;font-variant-ligatures:normal;font-variant-numeric:normal"/><path d="m360.87-100.48v4.1426h1.0626v-2.7258q0-0.3696 0.1463-0.539 0.154-0.1694 0.4081-0.1694 0.2233 0 0.3157 0.1386 0.1001 0.1386 0.1001 0.4004v2.8952h1.0626v-2.7258q0-0.3696 0.1463-0.539 0.154-0.1694 0.4081-0.1694 0.2233 0 0.3157 0.1386 0.1001 0.1386 0.1001 0.4004v2.8952h1.0626v-3.0107q0-0.6006-0.2541-0.9163-0.2464-0.3234-0.7777-0.3234-0.3773 0-0.6545 0.1694-0.2695 0.1617-0.3927 0.4928h-0.0154q-0.0847-0.3234-0.3388-0.4928-0.2464-0.1694-0.616-0.1694-0.3465 0-0.6006 0.1232-0.2464 0.1232-0.4466 0.4081h-0.0154v-0.4235z" style="font-variant-caps:normal;font-variant-east-asian:normal;font-variant-ligatures:normal;font-variant-numeric:normal"/><path d="m368.7-98.876h-1.0857v-0.1617q0-0.1463 0.0231-0.2926 0.0308-0.1463 0.0924-0.2618 0.0616-0.1232 0.1617-0.1925 0.1078-0.077 0.2695-0.077t0.2618 0.0693q0.1078 0.0616 0.1617 0.1925 0.0616 0.1232 0.0847 0.308 0.0231 0.1771 0.0308 0.4158zm-1.0857 0.6314h2.1021v-0.2387q0-0.4774-0.0616-0.8624-0.0616-0.3927-0.231-0.6622-0.1694-0.2772-0.4697-0.4235-0.2926-0.154-0.7546-0.154-0.539 0-0.8624 0.1771t-0.5005 0.4774q-0.1694 0.3003-0.231 0.6853-0.0539 0.385-0.0539 0.8008 0 0.3927 0.0308 0.7854 0.0385 0.3927 0.1925 0.7084t0.4774 0.5082 0.9009 0.1925q0.7623 0 1.1165-0.3773t0.385-1.1011h-0.9548q-0.0462 0.3927-0.1694 0.5852t-0.3927 0.1925q-0.1463 0-0.2464-0.077-0.1001-0.0847-0.1617-0.2156-0.0616-0.1386-0.0924-0.308-0.0231-0.1771-0.0231-0.3619z" style="font-variant-caps:normal;font-variant-east-asian:normal;font-variant-ligatures:normal;font-variant-numeric:normal"/><path d="m370.27-100.48v4.1426h1.0626v-2.7489q0-0.6853 0.5621-0.6853 0.2387 0 0.3465 0.1309 0.1078 0.1232 0.1078 0.4466v2.8567h1.0626v-3.0723q0-0.6237-0.2772-0.9009-0.2695-0.2772-0.7777-0.2772-0.3465 0-0.616 0.1463-0.2695 0.1386-0.4389 0.4466h-0.0154v-0.4851z" style="font-variant-caps:normal;font-variant-east-asian:normal;font-variant-ligatures:normal;font-variant-numeric:normal"/><path d="m374.35-101.66v1.1858h-0.539v0.7238h0.539v2.3716q0 0.3157 0.0385 0.5236t0.1386 0.3388q0.1078 0.1232 0.3003 0.1694 0.2002 0.0385 0.5082 0.0385 0.1848 0 0.3465-0.0154 0.1694-0.0077 0.3465-0.0077v-0.7392q-0.0539 0.0077-0.1155 0.0154-0.0616 0-0.1232 0-0.231 0-0.308-0.1001-0.0693-0.1078-0.0693-0.3542v-2.2407h0.616v-0.7238h-0.616v-1.1858z" style="font-variant-caps:normal;font-variant-east-asian:normal;font-variant-ligatures:normal;font-variant-numeric:normal"/><path d="m378.48-99.754v3.4188h1.0626v-3.4188h0.616v-0.7238h-0.616v-0.3619q0-0.1771 0.0924-0.2541t0.3157-0.077h0.1001q0.0693 0 0.1078 8e-3v-0.7546q-0.2849-0.0231-0.5698-0.0231-0.2541 0-0.462 0.0539-0.2079 0.0462-0.3542 0.1617-0.1386 0.1155-0.2156 0.308t-0.077 0.4697v0.4697h-0.539v0.7238z" style="font-variant-caps:normal;font-variant-east-asian:normal;font-variant-ligatures:normal;font-variant-numeric:normal"/><path d="m381.46-98.406q0-0.3157 0.0154-0.5852t0.0693-0.462q0.0616-0.1925 0.1771-0.3003t0.308-0.1078q0.3234 0 0.4466 0.3388t0.1232 1.1165-0.1232 1.1165-0.4466 0.3388q-0.1925 0-0.308-0.1078t-0.1771-0.3003q-0.0539-0.1925-0.0693-0.462t-0.0154-0.5852zm-1.0626 0q0 0.539 0.077 0.9548 0.077 0.4081 0.2618 0.6853 0.1848 0.2695 0.5005 0.4004 0.3157 0.1232 0.7931 0.1155 0.4543 0 0.7623-0.1309 0.3157-0.1309 0.5082-0.4004 0.1925-0.2772 0.2772-0.6853t0.0847-0.9394q0-0.5467-0.077-0.9548t-0.2618-0.6853q-0.1848-0.2772-0.5005-0.4081-0.3157-0.1386-0.7931-0.1309-0.4543 0-0.77 0.1463-0.308 0.1386-0.5005 0.4158-0.1925 0.2695-0.2772 0.6776t-0.0847 0.9394z" style="font-variant-caps:normal;font-variant-east-asian:normal;font-variant-ligatures:normal;font-variant-numeric:normal"/><path d="m384.24-100.48v4.1426h1.0626v-2.4871q0-0.2079 0.0693-0.3465 0.0693-0.1463 0.1848-0.231 0.1155-0.0924 0.2541-0.1309t0.2772-0.0385q0.0847 0 0.1617 0.0077 0.0847 0 0.1694 0.0077v-1.0164q-0.0462-8e-3 -0.1001-8e-3 -0.0462-8e-3 -0.0924-8e-3 -0.3311 0-0.5621 0.1848-0.231 0.1771-0.3927 0.4774h-0.0154v-0.5544z" style="font-variant-caps:normal;font-variant-east-asian:normal;font-variant-ligatures:normal;font-variant-numeric:normal"/><path d="m388.69-101.83v5.4978h1.1088v-2.3254h0.5929q0.3465 0 0.4928 0.1848t0.1617 0.5082l0.0308 1.0549q8e-3 0.1617 0.0308 0.3157 0.0231 0.1463 0.1078 0.2618h1.2012v-0.0462q-0.154-0.0847-0.2002-0.3157-0.0308-0.231-0.0462-0.6699-8e-3 -0.2233-0.0154-0.4004-8e-3 -0.1848-0.0231-0.3388-0.0462-0.462-0.2387-0.6699t-0.6083-0.2695v-0.0154q0.4697-0.1001 0.693-0.4466 0.2233-0.3542 0.2233-0.9086 0-0.7161-0.385-1.0626-0.385-0.3542-1.078-0.3542zm1.1088 2.4024v-1.5862h0.5236q0.77 0 0.77 0.7623 0 0.4466-0.2156 0.6391-0.2156 0.1848-0.616 0.1848z" style="font-variant-caps:normal;font-variant-east-asian:normal;font-variant-ligatures:normal;font-variant-numeric:normal"/><path d="m394.94-98.876h-1.0857v-0.1617q0-0.1463 0.0231-0.2926 0.0308-0.1463 0.0924-0.2618 0.0616-0.1232 0.1617-0.1925 0.1078-0.077 0.2695-0.077t0.2618 0.0693q0.1078 0.0616 0.1617 0.1925 0.0616 0.1232 0.0847 0.308 0.0231 0.1771 0.0308 0.4158zm-1.0857 0.6314h2.1021v-0.2387q0-0.4774-0.0616-0.8624-0.0616-0.3927-0.231-0.6622-0.1694-0.2772-0.4697-0.4235-0.2926-0.154-0.7546-0.154-0.539 0-0.8624 0.1771t-0.5005 0.4774q-0.1694 0.3003-0.231 0.6853-0.0539 0.385-0.0539 0.8008 0 0.3927 0.0308 0.7854 0.0385 0.3927 0.1925 0.7084t0.4774 0.5082 0.9009 0.1925q0.7623 0 1.1165-0.3773t0.385-1.1011h-0.9548q-0.0462 0.3927-0.1694 0.5852t-0.3927 0.1925q-0.1463 0-0.2464-0.077-0.1001-0.0847-0.1617-0.2156-0.0616-0.1386-0.0924-0.308-0.0231-0.1771-0.0231-0.3619z" style="font-variant-caps:normal;font-variant-east-asian:normal;font-variant-ligatures:normal;font-variant-numeric:normal"/><path d="m398.44-98.406v0.8162q0 0.1694-0.0616 0.2926t-0.1617 0.2002q-0.0924 0.077-0.2079 0.1155-0.1155 0.0308-0.2233 0.0308-0.2156 0-0.308-0.1694t-0.0924-0.4081q0-0.2772 0.1386-0.4389t0.462-0.231q0.1001-0.0231 0.2233-0.0693 0.1232-0.0539 0.231-0.1386zm-1.9404-0.8008h0.9548v-0.1155q0-0.2464 0.1232-0.3927t0.3696-0.1463q0.2695 0 0.3773 0.1386 0.1155 0.1309 0.1155 0.3696 0 0.2079-0.0924 0.3157t-0.3311 0.1694l-0.6006 0.1617q-0.2772 0.077-0.4774 0.1771-0.1925 0.1001-0.3234 0.2541-0.1232 0.1463-0.1848 0.3619-0.0616 0.2079-0.0616 0.5005 0 0.2079 0.0539 0.4235 0.0539 0.2079 0.1694 0.3773t0.308 0.2695q0.1925 0.0924 0.4697 0.0924 0.385 0 0.6237-0.0924 0.2464-0.1001 0.4312-0.4235h0.0154q0.0231 0.1078 0.0462 0.2233 0.0308 0.1078 0.0847 0.2079h1.0164q-0.077-0.1848-0.1078-0.3465-0.0231-0.1617-0.0231-0.4543v-2.1791q0-0.2772-0.0616-0.5082-0.0539-0.2387-0.2156-0.4081t-0.4543-0.2618-0.77-0.0924q-0.3003 0-0.5698 0.0693-0.2618 0.0616-0.462 0.2156-0.1925 0.1463-0.308 0.3927-0.1155 0.2387-0.1155 0.6006z" style="font-variant-caps:normal;font-variant-east-asian:normal;font-variant-ligatures:normal;font-variant-numeric:normal"/><path d="m402.21-98.984h1.0164q0-0.7392-0.3773-1.1704-0.3696-0.4312-1.1088-0.4312-0.3696 0-0.6776 0.1001t-0.5313 0.3542q-0.2233 0.2464-0.3465 0.6699-0.1232 0.4158-0.1232 1.0549 0 0.6237 0.1001 1.0472 0.1001 0.4158 0.2926 0.6699 0.2002 0.2464 0.4928 0.3465 0.3003 0.0924 0.7007 0.0924 0.847 0 1.2089-0.4235 0.3696-0.4312 0.3696-1.2474h-1.0164q0 0.5082-0.1232 0.7392t-0.3927 0.231q-0.1771 0-0.2926-0.077-0.1078-0.0847-0.1694-0.2618t-0.0847-0.4466q-0.0231-0.2772-0.0231-0.6622 0-0.3619 0.0231-0.6237 0.0231-0.2695 0.0847-0.4389 0.0616-0.1771 0.1848-0.2618 0.1232-0.0924 0.3157-0.0924 0.154 0 0.2464 0.077 0.0924 0.0693 0.1386 0.1925 0.0539 0.1155 0.0693 0.2618 0.0231 0.1463 0.0231 0.3003z" style="font-variant-caps:normal;font-variant-east-asian:normal;font-variant-ligatures:normal;font-variant-numeric:normal"/><path d="m404.01-101.66v1.1858h-0.539v0.7238h0.539v2.3716q0 0.3157 0.0385 0.5236t0.1386 0.3388q0.1078 0.1232 0.3003 0.1694 0.2002 0.0385 0.5082 0.0385 0.1848 0 0.3465-0.0154 0.1694-0.0077 0.3465-0.0077v-0.7392q-0.0539 0.0077-0.1155 0.0154-0.0616 0-0.1232 0-0.231 0-0.308-0.1001-0.0693-0.1078-0.0693-0.3542v-2.2407h0.616v-0.7238h-0.616v-1.1858z" style="font-variant-caps:normal;font-variant-east-asian:normal;font-variant-ligatures:normal;font-variant-numeric:normal"/><path d="m407.14-97.536h-1.0164v1.2012h0.4004v0.1001q0 0.2156-0.1001 0.3927t-0.3003 0.2156v0.539q0.308-0.0308 0.5005-0.154 0.2002-0.1155 0.3157-0.308 0.1155-0.1848 0.154-0.4466 0.0462-0.2541 0.0462-0.539z" style="font-variant-caps:normal;font-variant-east-asian:normal;font-variant-ligatures:normal;font-variant-numeric:normal"/><path d="m409.49-100.48v4.1426h1.0626v-2.7258q0-0.3696 0.1463-0.539 0.154-0.1694 0.4081-0.1694 0.2233 0 0.3157 0.1386 0.1001 0.1386 0.1001 0.4004v2.8952h1.0626v-2.7258q0-0.3696 0.1463-0.539 0.154-0.1694 0.4081-0.1694 0.2233 0 0.3157 0.1386 0.1001 0.1386 0.1001 0.4004v2.8952h1.0626v-3.0107q0-0.6006-0.2541-0.9163-0.2464-0.3234-0.7777-0.3234-0.3773 0-0.6545 0.1694-0.2695 0.1617-0.3927 0.4928h-0.0154q-0.0847-0.3234-0.3388-0.4928-0.2464-0.1694-0.616-0.1694-0.3465 0-0.6006 0.1232-0.2464 0.1232-0.4466 0.4081h-0.0154v-0.4235z" style="font-variant-caps:normal;font-variant-east-asian:normal;font-variant-ligatures:normal;font-variant-numeric:normal"/><path d="m417.26-98.406v0.8162q0 0.1694-0.0616 0.2926t-0.1617 0.2002q-0.0924 0.077-0.2079 0.1155-0.1155 0.0308-0.2233 0.0308-0.2156 0-0.308-0.1694t-0.0924-0.4081q0-0.2772 0.1386-0.4389t0.462-0.231q0.1001-0.0231 0.2233-0.0693 0.1232-0.0539 0.231-0.1386zm-1.9404-0.8008h0.9548v-0.1155q0-0.2464 0.1232-0.3927t0.3696-0.1463q0.2695 0 0.3773 0.1386 0.1155 0.1309 0.1155 0.3696 0 0.2079-0.0924 0.3157t-0.3311 0.1694l-0.6006 0.1617q-0.2772 0.077-0.4774 0.1771-0.1925 0.1001-0.3234 0.2541-0.1232 0.1463-0.1848 0.3619-0.0616 0.2079-0.0616 0.5005 0 0.2079 0.0539 0.4235 0.0539 0.2079 0.1694 0.3773t0.308 0.2695q0.1925 0.0924 0.4697 0.0924 0.385 0 0.6237-0.0924 0.2464-0.1001 0.4312-0.4235h0.0154q0.0231 0.1078 0.0462 0.2233 0.0308 0.1078 0.0847 0.2079h1.0164q-0.077-0.1848-0.1078-0.3465-0.0231-0.1617-0.0231-0.4543v-2.1791q0-0.2772-0.0616-0.5082-0.0539-0.2387-0.2156-0.4081t-0.4543-0.2618-0.77-0.0924q-0.3003 0-0.5698 0.0693-0.2618 0.0616-0.462 0.2156-0.1925 0.1463-0.308 0.3927-0.1155 0.2387-0.1155 0.6006z" style="font-variant-caps:normal;font-variant-east-asian:normal;font-variant-ligatures:normal;font-variant-numeric:normal"/><path d="m421.15-96.774v0.4389h1.0164v-5.4978h-1.0626v1.7402h-0.0154q-0.1694-0.2464-0.385-0.3696-0.2079-0.1232-0.5082-0.1232-0.6545 0-0.9625 0.5159-0.308 0.5082-0.308 1.6632t0.308 1.6555 0.9625 0.5005q0.3234 0 0.539-0.1155 0.2233-0.1155 0.4004-0.4081zm-1.1627-1.6324q0-0.6776 0.1001-1.0164 0.1078-0.3465 0.4543-0.3465 0.3542 0 0.4543 0.3465 0.1078 0.3388 0.1078 1.0164t-0.1078 1.0241q-0.1001 0.3388-0.4543 0.3388-0.3465 0-0.4543-0.3388-0.1001-0.3465-0.1001-1.0241z" style="font-variant-caps:normal;font-variant-east-asian:normal;font-variant-ligatures:normal;font-variant-numeric:normal"/><path d="m424.87-98.876h-1.0857v-0.1617q0-0.1463 0.0231-0.2926 0.0308-0.1463 0.0924-0.2618 0.0616-0.1232 0.1617-0.1925 0.1078-0.077 0.2695-0.077t0.2618 0.0693q0.1078 0.0616 0.1617 0.1925 0.0616 0.1232 0.0847 0.308 0.0231 0.1771 0.0308 0.4158zm-1.0857 0.6314h2.1021v-0.2387q0-0.4774-0.0616-0.8624-0.0616-0.3927-0.231-0.6622-0.1694-0.2772-0.4697-0.4235-0.2926-0.154-0.7546-0.154-0.539 0-0.8624 0.1771t-0.5005 0.4774q-0.1694 0.3003-0.231 0.6853-0.0539 0.385-0.0539 0.8008 0 0.3927 0.0308 0.7854 0.0385 0.3927 0.1925 0.7084t0.4774 0.5082 0.9009 0.1925q0.7623 0 1.1165-0.3773t0.385-1.1011h-0.9548q-0.0462 0.3927-0.1694 0.5852t-0.3927 0.1925q-0.1463 0-0.2464-0.077-0.1001-0.0847-0.1617-0.2156-0.0616-0.1386-0.0924-0.308-0.0231-0.1771-0.0231-0.3619z" style="font-variant-caps:normal;font-variant-east-asian:normal;font-variant-ligatures:normal;font-variant-numeric:normal"/><path d="m429.07-97.69h-0.9548v0.1463q0 0.3003 0.0693 0.5467 0.0693 0.2387 0.2387 0.4081 0.1771 0.1694 0.4697 0.2541 0.3003 0.0847 0.7469 0.0847 0.3388 0 0.616-0.0693 0.2849-0.0693 0.4851-0.231 0.2079-0.1617 0.3234-0.4004 0.1155-0.2464 0.1155-0.5775 0-0.4697-0.2079-0.7392-0.2079-0.2772-0.7084-0.4466l-0.6391-0.2156q-0.2695-0.0847-0.3696-0.2079-0.0924-0.1232-0.0924-0.2772 0-0.2233 0.1463-0.3311 0.154-0.1155 0.3542-0.1155 0.2618 0 0.3619 0.154 0.1078 0.1463 0.1078 0.4697h0.9548v-0.1694q0-0.5621-0.3465-0.8701-0.3465-0.308-1.0703-0.308-0.4081 0-0.7007 0.1001-0.2849 0.1001-0.4697 0.2695t-0.2695 0.4004q-0.0847 0.2233-0.0847 0.4774 0 0.4389 0.2233 0.7238 0.2233 0.2772 0.6622 0.4312l0.7469 0.2695q0.154 0.0616 0.2695 0.1694 0.1155 0.1001 0.1155 0.3003 0 0.2464-0.1463 0.3696t-0.3927 0.1232q-0.2695 0-0.4158-0.1617-0.1386-0.1694-0.1386-0.4389z" style="font-variant-caps:normal;font-variant-east-asian:normal;font-variant-ligatures:normal;font-variant-numeric:normal"/><path d="m431.74-101.89v0.9086h1.0626v-0.9086zm0 1.4168v4.1426h1.0626v-4.1426z" style="font-variant-caps:normal;font-variant-east-asian:normal;font-variant-ligatures:normal;font-variant-numeric:normal"/><path d="m433.55-100.48v4.1426h1.0626v-2.7258q0-0.3696 0.1463-0.539 0.154-0.1694 0.4081-0.1694 0.2233 0 0.3157 0.1386 0.1001 0.1386 0.1001 0.4004v2.8952h1.0626v-2.7258q0-0.3696 0.1463-0.539 0.154-0.1694 0.4081-0.1694 0.2233 0 0.3157 0.1386 0.1001 0.1386 0.1001 0.4004v2.8952h1.0626v-3.0107q0-0.6006-0.2541-0.9163-0.2464-0.3234-0.7777-0.3234-0.3773 0-0.6545 0.1694-0.2695 0.1617-0.3927 0.4928h-0.0154q-0.0847-0.3234-0.3388-0.4928-0.2464-0.1694-0.616-0.1694-0.3465 0-0.6006 0.1232-0.2464 0.1232-0.4466 0.4081h-0.0154v-0.4235z" style="font-variant-caps:normal;font-variant-east-asian:normal;font-variant-ligatures:normal;font-variant-numeric:normal"/><path d="m439.39-100.48v5.4747h1.0626v-1.7171h0.0154q0.1694 0.2464 0.3773 0.3619 0.2156 0.1078 0.5159 0.1078 0.6545 0 0.9625-0.5005t0.308-1.6555-0.308-1.6632q-0.308-0.5159-0.9625-0.5159-0.3234 0-0.5467 0.1309-0.2156 0.1232-0.3927 0.4158h-0.0154v-0.4389zm1.0626 2.0713q0-0.6776 0.1001-1.0164 0.1078-0.3465 0.462-0.3465 0.3465 0 0.4466 0.3465 0.1078 0.3388 0.1078 1.0164t-0.1078 1.0241q-0.1001 0.3388-0.4466 0.3388-0.3542 0-0.462-0.3388-0.1001-0.3465-0.1001-1.0241z" style="font-variant-caps:normal;font-variant-east-asian:normal;font-variant-ligatures:normal;font-variant-numeric:normal"/><path d="m443.28-101.83v5.4978h1.0626v-5.4978z" style="font-variant-caps:normal;font-variant-east-asian:normal;font-variant-ligatures:normal;font-variant-numeric:normal"/><path d="m447.08-98.876h-1.0857v-0.1617q0-0.1463 0.0231-0.2926 0.0308-0.1463 0.0924-0.2618 0.0616-0.1232 0.1617-0.1925 0.1078-0.077 0.2695-0.077t0.2618 0.0693q0.1078 0.0616 0.1617 0.1925 0.0616 0.1232 0.0847 0.308 0.0231 0.1771 0.0308 0.4158zm-1.0857 0.6314h2.1021v-0.2387q0-0.4774-0.0616-0.8624-0.0616-0.3927-0.231-0.6622-0.1694-0.2772-0.4697-0.4235-0.2926-0.154-0.7546-0.154-0.539 0-0.8624 0.1771t-0.5005 0.4774q-0.1694 0.3003-0.231 0.6853-0.0539 0.385-0.0539 0.8008 0 0.3927 0.0308 0.7854 0.0385 0.3927 0.1925 0.7084t0.4774 0.5082 0.9009 0.1925q0.7623 0 1.1165-0.3773t0.385-1.1011h-0.9548q-0.0462 0.3927-0.1694 0.5852t-0.3927 0.1925q-0.1463 0-0.2464-0.077-0.1001-0.0847-0.1617-0.2156-0.0616-0.1386-0.0924-0.308-0.0231-0.1771-0.0231-0.3619z" style="font-variant-caps:normal;font-variant-east-asian:normal;font-variant-ligatures:normal;font-variant-numeric:normal"/><path d="m449.73-97.536h-1.0164v1.2012h1.0164z" style="font-variant-caps:normal;font-variant-east-asian:normal;font-variant-ligatures:normal;font-variant-numeric:normal"/></g></g></svg>
